<svg xmlns="http://www.w3.org/2000/svg" xmlns:xlink="http://www.w3.org/1999/xlink" viewBox="0 0 265.56 389"><defs><style>.cls-1{isolation:isolate;}.cls-2{fill:#fff;}.cls-3{fill:url(#linear-gradient);}.cls-4{fill:url(#linear-gradient-2);}.cls-5,.cls-9{opacity:0.6;}.cls-5{fill:url(#linear-gradient-3);}.cls-6{fill:url(#linear-gradient-4);}.cls-7{mix-blend-mode:multiply;}.cls-8,.cls-9{fill:#5d5d5d;}</style><linearGradient id="linear-gradient" y1="194.5" x2="22" y2="194.5" gradientUnits="userSpaceOnUse"><stop offset="0" stop-color="#988366"/><stop offset="0.85" stop-color="#b8a887"/><stop offset="0.96" stop-color="#d4c19b"/><stop offset="1" stop-color="#d6cebf"/></linearGradient><linearGradient id="linear-gradient-2" x1="22" y1="194.5" x2="29.56" y2="194.5" gradientUnits="userSpaceOnUse"><stop offset="0" stop-color="#d8d0c0"/><stop offset="1" stop-color="#b8a887"/></linearGradient><linearGradient id="linear-gradient-3" x1="29.56" y1="194.5" x2="43.78" y2="194.5" gradientUnits="userSpaceOnUse"><stop offset="0" stop-color="#c5b99f"/><stop offset="0.31" stop-color="#d8d0c0"/></linearGradient><linearGradient id="linear-gradient-4" x1="43.78" x2="265.56" xlink:href="#linear-gradient-2"/></defs><g class="cls-1"><g id="Layer_2" data-name="Layer 2"><g id="Layer_1-2" data-name="Layer 1"><polygon class="cls-2" points="43.78 1.27 43.78 387.73 29.56 389 29.56 0 43.78 1.27"/><polygon class="cls-3" points="0 9 0 380 22 389 22 0 0 9"/><rect class="cls-4" x="22" width="7.56" height="389"/><polygon class="cls-5" points="43.78 1.27 43.78 387.73 29.56 389 29.56 0 43.78 1.27"/><polygon class="cls-6" points="265.56 21 265.56 368 43.78 387.73 43.78 1.27 265.56 21"/><g class="cls-7"><polygon class="cls-8" points="43.78 1.27 43.78 387.73 29.56 389 29.56 0 43.78 1.27"/><polygon class="cls-8" points="0 9 0 380 22 389 22 0 0 9"/><rect class="cls-8" x="22" width="7.56" height="389"/><polygon class="cls-9" points="43.78 1.27 43.78 387.73 29.56 389 29.56 0 43.78 1.27"/><polygon class="cls-8" points="265.56 21 265.56 368 43.78 387.73 43.78 1.27 265.56 21"/></g></g></g></g></svg>