<svg id="Layer_1" data-name="Layer 1" xmlns="http://www.w3.org/2000/svg" viewBox="0 0 300 230"><defs><style>.cls-1{fill:#a9ada8;}.cls-2{fill:#d5dbd5;}.cls-3{fill:#069686;}.cls-4{fill:#09d6be;}.cls-5{fill:#ecf2eb;}.cls-6{fill:#04695d;}.cls-7{fill:#e6e6e6;}.cls-8{fill:#f2f2f2;}</style></defs><polygon class="cls-1" points="2.98 117.02 170.46 214.34 297.96 140.73 130.49 43.41 2.98 117.02"/><polygon class="cls-2" points="170.46 214.34 170.48 220.85 297.99 147.24 297.96 140.73 170.46 214.34"/><polygon class="cls-3" points="2.98 84.76 3.01 123.53 170.48 220.85 170.46 182.08 2.98 84.76"/><polygon class="cls-2" points="170.46 182.08 170.48 188.59 297.99 114.98 297.96 108.47 170.46 182.08"/><polygon class="cls-4" points="2.98 84.76 170.46 182.08 183.44 174.59 15.97 77.27 2.98 84.76"/><polygon class="cls-5" points="130.49 11.15 15.97 77.27 183.44 174.59 297.96 108.47 130.49 11.15"/><polygon class="cls-6" points="170.46 182.08 170.48 220.85 177.38 216.87 177.38 178.09 170.46 182.08"/><polygon class="cls-6" points="183.44 174.59 183.44 181.12 170.48 188.59 170.46 182.08 183.44 174.59"/><polygon class="cls-6" points="170.48 220.85 184.61 212.7 184.61 206.17 170.46 214.34 170.48 220.85"/><path class="cls-7" d="M288.86,122.28v-2L177.53,184.52V203.8l12.67-7.31C204.94,175.9,237.66,152.52,288.86,122.28Z"/><path class="cls-8" d="M288.86,122.28c-51.2,30.24-83.92,53.62-98.66,74.21l98.66-56.88Z"/></svg>