<svg id="Layer_1" data-name="Layer 1" xmlns="http://www.w3.org/2000/svg" viewBox="0 0 300 230"><defs><style>.cls-1{fill:#55707b;}.cls-2{fill:#62808d;}.cls-3{fill:#455a66;}.cls-4{fill:#e6e6e6;}.cls-5{fill:#f2f2f2;}</style></defs><polygon class="cls-1" points="2.98 84.76 3.01 123.53 170.48 220.85 170.46 182.08 2.98 84.76"/><polygon class="cls-2" points="2.98 84.76 170.46 182.08 183.44 174.59 15.97 77.27 2.98 84.76"/><polygon class="cls-3" points="170.46 182.08 170.48 220.85 177.38 216.87 177.38 178.09 170.46 182.08"/><polygon class="cls-3" points="183.44 174.59 183.44 181.12 170.48 188.59 170.46 182.08 183.44 174.59"/><polygon class="cls-3" points="170.48 220.85 184.61 212.7 184.61 206.17 170.46 214.34 170.48 220.85"/><path class="cls-4" d="M288.86,122.28v-2L177.53,184.52V203.8l12.67-7.31C204.94,175.9,237.66,152.52,288.86,122.28Z"/><path class="cls-5" d="M288.86,122.28c-51.2,30.24-83.92,53.62-98.66,74.21l98.66-56.88Z"/></svg>