<svg id="Layer_1" data-name="Layer 1" xmlns="http://www.w3.org/2000/svg" xmlns:xlink="http://www.w3.org/1999/xlink" viewBox="0 0 20 35"><defs><style>.cls-1{fill:none;}.cls-2{isolation:isolate;}.cls-3{clip-path:url(#clip-path);}</style><clipPath id="clip-path"><polygon class="cls-1" points="1.56 27.16 1.63 1.46 19.67 11.88 19.6 37.57 1.56 27.16"/></clipPath></defs><g class="cls-2"><g class="cls-3"><path d="M7.27,27.82A25.42,25.42,0,0,1,4.4,26L4.46,6A19.54,19.54,0,0,1,7.79,7.61c6,3.47,8.93,9,8.88,14.9,0,6.83-3.33,8.82-9.4,5.31M7.66,5a48.34,48.34,0,0,0-6-3L1.56,26.85C3,27.87,4.69,29,6.71,30.13c4.28,2.47,7.67,3.15,9.74,2s3.18-3.88,3.19-8a20.4,20.4,0,0,0-3.07-10.86A24.14,24.14,0,0,0,7.66,5"/></g></g></svg>