<svg id="Layer_1" data-name="Layer 1" xmlns="http://www.w3.org/2000/svg" xmlns:xlink="http://www.w3.org/1999/xlink" viewBox="0 0 20 35"><defs><style>.cls-1{fill:none;}.cls-2{isolation:isolate;}.cls-3{clip-path:url(#clip-path);}</style><clipPath id="clip-path"><polygon class="cls-1" points="1.42 23.68 1.49 -2.38 18.2 7.26 18.13 33.33 1.42 23.68"/></clipPath></defs><g class="cls-2"><g class="cls-3"><path d="M13,4.25C6.16.31,1.48,3,1.45,10.89A22.14,22.14,0,0,0,12.28,30a14,14,0,0,0,5.82,2.15l-.58-2.92a11.1,11.1,0,0,1-4.64-1.63,17.15,17.15,0,0,1-8.42-15c0-6.64,3.45-8.45,8.61-5.47a18.08,18.08,0,0,1,4.44,3.61l.69-2.27A20.53,20.53,0,0,0,13,4.25"/></g></g></svg>