<svg id="Layer_1" data-name="Layer 1" xmlns="http://www.w3.org/2000/svg" xmlns:xlink="http://www.w3.org/1999/xlink" viewBox="0 0 20 35"><defs><style>.cls-1{fill:none;}.cls-2{isolation:isolate;}.cls-3{clip-path:url(#clip-path);}</style><clipPath id="clip-path"><polygon class="cls-1" points="3.55 28.36 3.62 2.67 17.49 10.68 17.42 36.37 3.55 28.36"/></clipPath></defs><g class="cls-2"><g class="cls-3"><path d="M8.78,28.82A21.62,21.62,0,0,1,6.4,27.3l0-9.64L8.77,19c3.11,1.79,5.68,4.71,5.67,8.16,0,3.67-2.73,3.34-5.66,1.64M6.43,15.19l0-8.14A13.85,13.85,0,0,1,9,8.28c2.87,1.65,4.82,3.94,4.81,6.91,0,2.43-1.77,3.22-4.77,1.49L6.43,15.19M8.81,5.66A31.18,31.18,0,0,0,3.62,3.2L3.55,28.06A49.34,49.34,0,0,0,8,30.9c3.6,2.08,6.08,2.76,7.61,2,1.12-.6,1.88-1.81,1.88-4,0-3.74-2.43-7.15-4.52-9v-.08c2.32.36,3.73-1,3.74-3.4A9.67,9.67,0,0,0,14.84,11a16.73,16.73,0,0,0-6-5.33"/></g></g></svg>