<svg id="Layer_1" data-name="Layer 1" xmlns="http://www.w3.org/2000/svg" xmlns:xlink="http://www.w3.org/1999/xlink" viewBox="0 0 20 35"><defs><style>.cls-1{fill:none;}.cls-2{isolation:isolate;}.cls-3{clip-path:url(#clip-path);}</style><clipPath id="clip-path"><polygon class="cls-1" points="1.17 23.19 1.24 -2.61 19.29 7.81 19.22 33.61 1.17 23.19"/></clipPath></defs><g class="cls-2"><g class="cls-3"><path d="M13.16,4.27C5.78,0,1.26,2.92,1.21,10.44a22.54,22.54,0,0,0,3,11.19,22.16,22.16,0,0,0,8.22,8.08,20.08,20.08,0,0,0,6.75,2.51l0-12.15L12,15.88v2.63l4.48,2.58,0,7.55a9.59,9.59,0,0,1-3.79-1.51A17.35,17.35,0,0,1,4.21,12c0-6.34,3.52-8.15,8.88-5a19.74,19.74,0,0,1,4.85,3.89l.7-2.27a23.55,23.55,0,0,0-5.48-4.32"/></g></g></svg>